<svg width="957" height="224" viewBox="0 0 957 224" fill="none" xmlns="http://www.w3.org/2000/svg">
<path opacity="0.15" d="M825.144 223.221C776.558 223.221 732.498 201.036 709.591 165.871C686.714 201.036 642.655 223.221 594.053 223.221C545.452 223.221 501.392 201.036 478.5 165.871C455.608 201.036 411.549 223.221 362.963 223.221C314.361 223.221 270.302 201.036 247.41 165.871C224.518 201.036 180.457 223.221 131.856 223.221C57.9151 223.221 0 174.342 0 111.949C0 49.5508 57.9305 0.677246 131.856 0.677246C180.457 0.677246 224.503 22.8628 247.41 58.0276C270.302 22.8628 314.361 0.677246 362.963 0.677246C411.549 0.677246 455.608 22.8628 478.5 58.0276C501.392 22.8628 545.452 0.677246 594.053 0.677246C642.655 0.677246 686.714 22.8628 709.591 58.0276C732.498 22.8628 776.558 0.677246 825.144 0.677246C899.085 0.677246 957 49.5508 957 111.949C957 174.348 899.07 223.221 825.144 223.221ZM709.591 153.396C712.362 153.396 714.733 154.149 715.256 155.193C734.823 193.816 777.944 218.772 825.144 218.772C891.495 218.772 945.454 170.848 945.454 111.949C945.454 53.0507 891.48 5.12623 825.144 5.12623C777.959 5.12623 734.823 30.0821 715.256 68.7052C714.733 69.7492 712.347 70.5025 709.591 70.5025C706.82 70.5025 704.45 69.7492 703.926 68.7052C684.375 30.0821 641.269 5.12623 594.053 5.12623C546.853 5.12623 503.717 30.0821 484.165 68.7052C483.119 70.7991 473.881 70.7991 472.835 68.7052C453.299 30.0821 410.178 5.12623 362.963 5.12623C315.762 5.12623 272.626 30.0821 253.075 68.7052C252.028 70.7991 242.791 70.7991 241.744 68.7052C222.193 30.0821 179.072 5.12623 131.856 5.12623C65.5048 5.12623 11.5461 53.0447 11.5461 111.949C11.5461 170.854 65.5201 218.772 131.856 218.772C179.057 218.772 222.193 193.816 241.744 155.193C242.791 153.105 252.028 153.105 253.075 155.193C272.626 193.816 315.747 218.772 362.963 218.772C410.163 218.772 453.283 193.816 472.835 155.193C473.881 153.105 483.119 153.105 484.165 155.193C503.717 193.816 546.838 218.772 594.053 218.772C641.254 218.772 684.375 193.816 703.926 155.193C704.45 154.149 706.82 153.396 709.591 153.396Z" fill="white"/>
</svg>
