<svg width="663" height="70" viewBox="0 0 663 70" fill="none" xmlns="http://www.w3.org/2000/svg">
<mask id="path-1-inside-1_1800_17" fill="white">
<path d="M186.522 0L183.931 4.31074C177.503 14.9851 171.528 22.4347 151.604 28.0031C144.324 30.296 119.709 33.2895 106.508 33.6661L10.9776 35.0201L0 35.3442L10.9994 35.5561L106.529 36.0641C119.179 36.5335 143.587 38.2887 151.604 41.0264C171.423 46.6001 177.528 55.0534 183.931 65.6875L186.522 70L189.108 65.6875C201.345 45.3127 214.048 34.9991 250.08 36.2498L259.012 34.9991L250.08 33.7485C208.56 33.6661 201.526 24.9851 189.108 4.31074L186.522 0ZM259.012 34.9991L267.94 36.2498C297.368 40.3696 320.379 51.4784 328.912 65.6875L331.498 70L334.088 65.6875C342.621 51.4784 365.632 40.3696 395.057 36.2498L403.988 34.9991L395.057 33.7485C365.632 29.6304 342.621 18.5199 334.088 4.31074L331.498 0L328.912 4.31074C320.379 18.5199 297.368 29.6304 267.94 33.7485L259.012 34.9991ZM403.988 34.9991L412.92 36.2498C450.05 36.2498 461.655 45.3127 473.884 65.6875L476.478 70L479.069 65.6875C485.472 55.0534 491.573 46.6001 511.396 41.0264C519.413 38.2887 543.821 36.5335 556.471 36.0641L651.993 35.5561L663 35.3442L652.019 35.0201L556.489 33.6661C543.291 33.2895 518.673 30.296 511.396 28.0031C491.472 22.4347 485.493 14.9851 479.069 4.31074L476.478 0L473.884 4.31074C461.474 24.9851 448.952 33.7485 412.92 33.7485L403.988 34.9991Z"/>
</mask>
<path d="M186.522 0L188.796 -1.3648L186.523 -5.15282L184.248 -1.36621L186.522 0ZM183.931 4.31074L186.204 5.6792L186.205 5.67695L183.931 4.31074ZM151.604 28.0031L150.89 25.4485L150.849 25.4601L150.808 25.4731L151.604 28.0031ZM106.508 33.6661L106.545 36.3185L106.564 36.3182L106.583 36.3176L106.508 33.6661ZM10.9776 35.0201L10.94 32.3678L10.9197 32.3681L10.8994 32.3687L10.9776 35.0201ZM0 35.3442L-0.0782686 32.6928L-0.0511034 37.9963L0 35.3442ZM10.9994 35.5561L10.9483 38.2082L10.9668 38.2086L10.9853 38.2087L10.9994 35.5561ZM106.529 36.0641L106.628 33.4133L106.586 33.4118L106.544 33.4116L106.529 36.0641ZM151.604 41.0264L150.747 43.5367L150.816 43.5602L150.886 43.58L151.604 41.0264ZM183.931 65.6875L186.205 64.3217L186.204 64.3192L183.931 65.6875ZM186.522 70L184.248 71.3658L186.523 75.1544L188.796 71.3644L186.522 70ZM189.108 65.6875L186.834 64.3218L186.833 64.3231L189.108 65.6875ZM250.08 36.2498L249.988 38.9008L250.219 38.9088L250.448 38.8767L250.08 36.2498ZM250.08 33.7485L250.448 31.1215L250.268 31.0962L250.085 31.0959L250.08 33.7485ZM189.108 4.31074L186.834 5.67554L186.834 5.67655L189.108 4.31074ZM267.94 36.2498L267.572 38.8767L267.572 38.8768L267.94 36.2498ZM328.912 65.6875L331.186 64.3231L331.186 64.3219L328.912 65.6875ZM331.498 70L329.223 71.3644L331.497 75.1544L333.772 71.3658L331.498 70ZM334.088 65.6875L336.362 67.0533L336.363 67.0531L334.088 65.6875ZM395.057 36.2498L395.424 38.8767L395.425 38.8767L395.057 36.2498ZM395.057 33.7485L395.425 31.1215L395.424 31.1215L395.057 33.7485ZM334.088 4.31074L336.363 2.94516L336.362 2.94452L334.088 4.31074ZM331.498 0L333.772 -1.36622L331.497 -5.15281L329.224 -1.3648L331.498 0ZM328.912 4.31074L331.186 5.67631L331.186 5.67554L328.912 4.31074ZM267.94 33.7485L267.572 31.1215L267.572 31.1215L267.94 33.7485ZM412.92 36.2498L412.552 38.8767L412.735 38.9024H412.92V36.2498ZM473.884 65.6875L471.61 67.0526L471.611 67.0547L473.884 65.6875ZM476.478 70L474.205 71.3672L476.48 75.149L478.752 71.3658L476.478 70ZM479.069 65.6875L476.796 64.3192L476.795 64.3217L479.069 65.6875ZM511.396 41.0264L512.114 43.58L512.184 43.5603L512.253 43.5367L511.396 41.0264ZM556.471 36.0641L556.456 33.4116L556.414 33.4118L556.372 33.4133L556.471 36.0641ZM651.993 35.5561L652.007 38.2087L652.026 38.2086L652.044 38.2082L651.993 35.5561ZM663 35.3442L663.051 37.9963L663.078 32.6928L663 35.3442ZM652.019 35.0201L652.097 32.3687L652.077 32.3681L652.056 32.3678L652.019 35.0201ZM556.489 33.6661L556.413 36.3176L556.432 36.3182L556.451 36.3185L556.489 33.6661ZM511.396 28.0031L512.193 25.4732L512.151 25.4601L512.11 25.4485L511.396 28.0031ZM479.069 4.31074L476.795 5.67697L476.796 5.67864L479.069 4.31074ZM476.478 0L478.752 -1.36623L476.48 -5.1475L474.205 -1.36761L476.478 0ZM473.884 4.31074L471.612 2.94313L471.61 2.94551L473.884 4.31074ZM412.92 33.7485V31.0959H412.735L412.552 31.1215L412.92 33.7485ZM186.522 0L184.248 -1.36621L181.658 2.94452L183.931 4.31074L186.205 5.67695L188.795 1.36621L186.522 0ZM183.931 4.31074L181.659 2.94227C178.486 8.21176 175.576 12.419 171.155 16.0135C166.736 19.6069 160.627 22.7273 150.89 25.4485L151.604 28.0031L152.318 30.5578C162.506 27.7106 169.346 24.3219 174.502 20.1298C179.657 15.9388 182.949 11.0841 186.204 5.6792L183.931 4.31074ZM151.604 28.0031L150.808 25.4731C147.433 26.5357 139.696 27.8348 130.949 28.9209C122.28 29.9975 112.917 30.8296 106.432 31.0146L106.508 33.6661L106.583 36.3176C113.3 36.126 122.845 35.2732 131.603 34.1856C140.285 33.1076 148.495 31.7634 152.401 30.5332L151.604 28.0031ZM106.508 33.6661L106.47 31.0138L10.94 32.3678L10.9776 35.0201L11.0152 37.6725L106.545 36.3185L106.508 33.6661ZM10.9776 35.0201L10.8994 32.3687L-0.0782686 32.6928L0 35.3442L0.0782686 37.9956L11.0559 37.6716L10.9776 35.0201ZM0 35.3442L-0.0511034 37.9963L10.9483 38.2082L10.9994 35.5561L11.0505 32.904L0.0511034 32.6921L0 35.3442ZM10.9994 35.5561L10.9853 38.2087L106.515 38.7167L106.529 36.0641L106.544 33.4116L11.0135 32.9036L10.9994 35.5561ZM106.529 36.0641L106.431 38.7149C112.71 38.9479 121.921 39.5008 130.549 40.3349C139.295 41.1805 147.083 42.2856 150.747 43.5367L151.604 41.0264L152.462 38.5162C148.108 37.0296 139.684 35.8881 131.059 35.0544C122.316 34.2091 112.999 33.6498 106.628 33.4133L106.529 36.0641ZM151.604 41.0264L150.886 43.58C160.518 46.2888 166.625 49.6409 171.067 53.4689C175.531 57.315 178.479 61.7741 181.659 67.0558L183.931 65.6875L186.204 64.3192C182.981 58.9668 179.674 53.8822 174.53 49.4498C169.365 44.9992 162.509 41.3377 152.323 38.4729L151.604 41.0264ZM183.931 65.6875L181.658 67.0533L184.248 71.3658L186.522 70L188.796 68.6342L186.205 64.3217L183.931 65.6875ZM186.522 70L188.796 71.3644L191.383 67.0519L189.108 65.6875L186.833 64.3231L184.247 68.6356L186.522 70ZM189.108 65.6875L191.382 67.0532C197.403 57.0284 203.335 49.831 211.93 45.1936C220.554 40.5406 232.2 38.2834 249.988 38.9008L250.08 36.2498L250.172 33.5988C231.928 32.9655 219.206 35.2397 209.411 40.5246C199.588 45.825 193.05 53.9717 186.834 64.3218L189.108 65.6875ZM250.08 36.2498L250.448 38.8767L259.38 37.6261L259.012 34.9991L258.644 32.3722L249.712 33.6228L250.08 36.2498ZM259.012 34.9991L259.38 32.3722L250.448 31.1215L250.08 33.7485L249.712 36.3754L258.644 37.6261L259.012 34.9991ZM250.08 33.7485L250.085 31.0959C229.409 31.0549 217.854 28.8527 209.978 24.4377C202.163 20.0576 197.612 13.3167 191.382 2.94492L189.108 4.31074L186.834 5.67655C193.022 15.9791 198.197 23.916 207.384 29.0655C216.509 34.1802 229.23 36.3597 250.075 36.4011L250.08 33.7485ZM189.108 4.31074L191.383 2.94593L188.796 -1.3648L186.522 0L184.247 1.3648L186.834 5.67554L189.108 4.31074ZM259.012 34.9991L258.644 37.6261L267.572 38.8767L267.94 36.2498L268.308 33.6228L259.38 32.3722L259.012 34.9991ZM267.94 36.2498L267.572 38.8768C282.07 40.9064 294.905 44.6479 305.108 49.5739C315.349 54.518 322.735 60.5549 326.638 67.0531L328.912 65.6875L331.186 64.3219C326.555 56.611 318.17 49.9889 307.415 44.7964C296.622 39.5858 283.237 35.7129 268.307 33.6228L267.94 36.2498ZM328.912 65.6875L326.637 67.0519L329.223 71.3644L331.498 70L333.773 68.6356L331.186 64.3231L328.912 65.6875ZM331.498 70L333.772 71.3658L336.362 67.0533L334.088 65.6875L331.815 64.3217L329.224 68.6342L331.498 70ZM334.088 65.6875L336.363 67.0531C340.265 60.5549 347.651 54.518 357.891 49.5739C368.094 44.6479 380.928 40.9064 395.424 38.8767L395.057 36.2498L394.689 33.6228C379.761 35.7129 366.377 39.5858 355.585 44.7964C344.83 49.9889 336.445 56.611 331.814 64.3219L334.088 65.6875ZM395.057 36.2498L395.425 38.8767L404.356 37.6261L403.988 34.9991L403.62 32.3722L394.689 33.6228L395.057 36.2498ZM403.988 34.9991L404.356 32.3722L395.425 31.1215L395.057 33.7485L394.689 36.3754L403.62 37.6261L403.988 34.9991ZM395.057 33.7485L395.424 31.1215C380.928 29.0927 368.094 25.3512 357.891 20.425C347.651 15.4807 340.265 9.44339 336.363 2.94516L334.088 4.31074L331.814 5.67631C336.445 13.3872 344.83 20.0098 355.585 25.2025C366.377 30.4133 379.761 34.2862 394.689 36.3755L395.057 33.7485ZM334.088 4.31074L336.362 2.94452L333.772 -1.36622L331.498 0L329.224 1.36622L331.815 5.67696L334.088 4.31074ZM331.498 0L329.224 -1.3648L326.637 2.94593L328.912 4.31074L331.186 5.67554L333.773 1.3648L331.498 0ZM328.912 4.31074L326.638 2.94516C322.735 9.44338 315.349 15.4807 305.108 20.425C294.905 25.3512 282.07 29.0927 267.572 31.1215L267.94 33.7485L268.307 36.3755C283.237 34.2862 296.622 30.4134 307.415 25.2025C318.17 20.0098 326.555 13.3872 331.186 5.67631L328.912 4.31074ZM267.94 33.7485L267.572 31.1215L258.644 32.3722L259.012 34.9991L259.38 37.6261L268.308 36.3754L267.94 33.7485ZM403.988 34.9991L403.62 37.6261L412.552 38.8767L412.92 36.2498L413.288 33.6228L404.356 32.3722L403.988 34.9991ZM412.92 36.2498V38.9024C431.324 38.9024 442.993 41.1597 451.497 45.6713C459.938 50.1495 465.589 57.0216 471.61 67.0526L473.884 65.6875L476.159 64.3224C469.95 53.9785 463.685 46.1318 453.983 40.9848C444.344 35.8713 431.645 33.5972 412.92 33.5972V36.2498ZM473.884 65.6875L471.611 67.0547L474.205 71.3672L476.478 70L478.751 68.6328L476.158 64.3203L473.884 65.6875ZM476.478 70L478.752 71.3658L481.342 67.0533L479.069 65.6875L476.795 64.3217L474.204 68.6342L476.478 70ZM479.069 65.6875L481.341 67.0558C484.521 61.7738 487.468 57.3149 491.931 53.4688C496.374 49.6409 502.48 46.2889 512.114 43.58L511.396 41.0264L510.678 38.4729C500.489 41.3377 493.633 44.9991 488.468 49.4499C483.324 53.8823 480.019 58.9671 476.796 64.3192L479.069 65.6875ZM511.396 41.0264L512.253 43.5367C515.917 42.2856 523.705 41.1805 532.451 40.3349C541.079 39.5008 550.29 38.9479 556.569 38.7149L556.471 36.0641L556.372 33.4133C550.001 33.6498 540.684 34.2091 531.941 35.0544C523.316 35.8881 514.892 37.0296 510.538 38.5162L511.396 41.0264ZM556.471 36.0641L556.485 38.7167L652.007 38.2087L651.993 35.5561L651.979 32.9036L556.456 33.4116L556.471 36.0641ZM651.993 35.5561L652.044 38.2082L663.051 37.9963L663 35.3442L662.949 32.6921L651.942 32.904L651.993 35.5561ZM663 35.3442L663.078 32.6928L652.097 32.3687L652.019 35.0201L651.94 37.6716L662.922 37.9956L663 35.3442ZM652.019 35.0201L652.056 32.3678L556.526 31.0138L556.489 33.6661L556.451 36.3185L651.981 37.6725L652.019 35.0201ZM556.489 33.6661L556.564 31.0146C550.081 30.8296 540.719 29.9975 532.049 28.9209C523.302 27.8348 515.565 26.5357 512.193 25.4732L511.396 28.0031L510.598 30.5331C514.503 31.7634 522.714 33.1076 531.395 34.1856C540.153 35.2732 549.698 36.126 556.413 36.3176L556.489 33.6661ZM511.396 28.0031L512.11 25.4485C502.373 22.7272 496.263 19.6069 491.843 16.0135C487.422 12.419 484.513 8.21185 481.341 2.94284L479.069 4.31074L476.796 5.67864C480.049 11.084 483.342 15.9388 488.497 20.1299C493.653 24.322 500.494 27.7107 510.682 30.5578L511.396 28.0031ZM479.069 4.31074L481.342 2.9445L478.752 -1.36623L476.478 0L474.205 1.36623L476.795 5.67697L479.069 4.31074ZM476.478 0L474.205 -1.36761L471.612 2.94313L473.884 4.31074L476.157 5.67835L478.751 1.36761L476.478 0ZM473.884 4.31074L471.61 2.94551C465.521 13.09 459.601 19.977 451.037 24.4289C442.408 28.9147 430.772 31.0959 412.92 31.0959V33.7485V36.4011C431.1 36.4011 443.741 34.2006 453.484 29.1361C463.291 24.0377 469.838 16.2058 476.159 5.67597L473.884 4.31074ZM412.92 33.7485L412.552 31.1215L403.62 32.3722L403.988 34.9991L404.356 37.6261L413.288 36.3754L412.92 33.7485Z" fill="white" mask="url(#path-1-inside-1_1800_17)"/>
</svg>
